{"title":"Dragon Blade 2015 720p HDTS x264 AC3 TiTAN","uid":11742817,"size":2001352434,"categoryP":"video","categoryS":"hd___movies","magnet":"?xt=urn:btih:5cfbf99ce87ab4a00888ef85b132baa65873f10f&amp;dn=Dragon+Blade+2015+720p+HDTS+x264+AC3+TiTAN&amp;tr=udp%3A%2F%2Ftracker.openbittorrent.com%3A80&amp;tr=udp%3A%2F%2Fopen.demonii.com%3A1337&amp;tr=udp%3A%2F%2Ftracker.coppersurfer.tk%3A6969&amp;tr=udp%3A%2F%2Fexodus.desync.com%3A6969","seeders":47,"leechers":3,"uploader":".BONE.","files":4,"time":1425863874,"description":" &lt;a href=&quot;http://www.imdb.com/title/tt3672840/&quot; rel=&quot;nofollow&quot; target=&quot;_NEW&quot;&gt;http://www.imdb.com/title/tt3672840/&lt;/a&gt;\n\nSource: R6 TC\n\nGeneral\n\nFormat : Matroska\nFormat version : Version 2\nFile size : 1.86 GiB\nDuration : 2h 7mn\nOverall bit rate mode : Variable\nOverall bit rate : 2 101 Kbps\nEncoded date : UTC 2015-03-07 23:05:02\n\nVideo\nID : 1\nFormat : AVC\nFormat/Info : Advanced Video Codec\nFormat profile : &lt;a class=&quot;__cf_email__&quot; href=&quot;/cdn-cgi/l/email-protection&quot; data-cfemail=&quot;e1a9888689a1add5cfd0&quot;&gt;[email&amp;#160;protected]&lt;/a&gt;&lt;script cf-hash='f9e31' type=&quot;text/javascript&quot;&gt;\n/* &lt;![CDATA[ */!function(){try{var t=&quot;currentScript&quot;in document?document.currentScript:function(){for(var t=document.getElementsByTagName(&quot;script&quot;),e=t.length;e--;)if(t[e].getAttribute(&quot;cf-hash&quot;))return t[e]}();if(t&amp;&amp;t.previousSibling){var e,r,n,i,c=t.previousSibling,a=c.getAttribute(&quot;data-cfemail&quot;);if(a){for(e=&quot;&quot;,r=parseInt(a.substr(0,2),16),n=2;a.length-n;n+=2)i=parseInt(a.substr(n,2),16)^r,e+=String.fromCharCode(i);e=document.createTextNode(e),c.parentNode.replaceChild(e,c)}}}catch(u){}}();/* ]]&gt; */&lt;/script&gt;\nFormat settings, CABAC : Yes\nFormat settings, ReFrames : 3 frames\nCodec ID : V_MPEG4/ISO/AVC\nDuration : 2h 7mn\nBit rate mode : Variable\nBit rate : 1 907 Kbps\nMaximum bit rate : 40.0 Mbps\nWidth : 1 280 pixels\nHeight : 544 pixels\nDisplay aspect ratio : 2.35:1\nFrame rate mode : Constant\nFrame rate : 23.976 fps\nColor space : YUV\nChroma subsampling : 4:2:0\nBit depth : 8 bits\nScan type : Progressive\nBits/(Pixel*Frame) : 0.114\nStream size : 1.66 GiB (89%)\nDefault : Yes\nForced : No\nColor primaries : BT.709\nTransfer characteristics : BT.709\nMatrix coefficients : BT.709\n\nAudio\nID : 2\nFormat : AC-3\nFormat/Info : Audio Coding 3\nMode extension : CM (complete main)\nFormat settings, Endianness : Big\nCodec ID : A_AC3\nDuration : 2h 7mn\nBit rate mode : Constant\nBit rate : 192 Kbps\nChannel(s) : 2 channels\nChannel positions : Front: L R\nSampling rate : 48.0 KHz\nBit depth : 16 bits\nCompression mode : Lossy\nStream size : 174 MiB (9%)\nDefault : Yes\nForced : No\n &lt;a href=&quot;\nhttp://i.imgur.com/I8K6S5K.png&quot; rel=&quot;nofollow&quot; target=&quot;_NEW&quot;&gt;\nhttp://i.imgur.com/I8K6S5K.png&lt;/a&gt; &lt;a href=&quot;\nhttp://i.imgur.com/gU2dlvg.jpg&quot; rel=&quot;nofollow&quot; target=&quot;_NEW&quot;&gt;\nhttp://i.imgur.com/gU2dlvg.jpg&lt;/a&gt; &lt;a href=&quot;\nhttp://i.imgur.com/zOuTvgs.jpg&quot; rel=&quot;nofollow&quot; target=&quot;_NEW&quot;&gt;\nhttp://i.imgur.com/zOuTvgs.jpg&lt;/a&gt; &lt;a href=&quot;\nhttp://i.imgur.com/vTJcErm.png&quot; rel=&quot;nofollow&quot; target=&quot;_NEW&quot;&gt;\nhttp://i.imgur.com/vTJcErm.png&lt;/a&gt;","torrent":{"xt":"urn:btih:5cfbf99ce87ab4a00888ef85b132baa65873f10f","amp;dn":"Dragon+Blade+2015+720p+HDTS+x264+AC3+TiTAN","amp;tr":["udp%3A%2F%2Ftracker.openbittorrent.com%3A80","udp%3A%2F%2Fopen.demonii.com%3A1337","udp%3A%2F%2Ftracker.coppersurfer.tk%3A6969","udp%3A%2F%2Fexodus.desync.com%3A6969"],"infoHash":"5cfbf99ce87ab4a00888ef85b132baa65873f10f","infoHashBuffer":{"type":"Buffer","data":[92,251,249,156,232,122,180,160,8,136,239,133,177,50,186,166,88,115,241,15]},"announce":[],"urlList":[]}}